<?xml version="1.0" encoding="utf-8"?>
<!-- Generator: Adobe Illustrator 21.0.0, SVG Export Plug-In . SVG Version: 6.00 Build 0)  -->
<svg version="1.1" id="Livello_1" xmlns="http://www.w3.org/2000/svg" xmlns:xlink="http://www.w3.org/1999/xlink" x="0px" y="0px"
	 viewBox="0 0 772 250" style="enable-background:new 0 0 772 250;" xml:space="preserve">
<style type="text/css">
	.st0{fill:#3C3C3B;}
	.st1{fill:none;}
	.st2{fill:#FD0000;}
	.st3{fill:#A590C3;}
	.st4{fill:#F5B9D5;}
</style>
<rect y="0" class="st0" width="772" height="250"/>
<path class="st1" d="M638.8,118.7l1.6-1.1C639.8,117.6,639.3,118.1,638.8,118.7z"/>
<path class="st2" d="M587.6,117.8l-3.1-2.4C585.3,116.4,586.3,117.2,587.6,117.8z"/>
<circle class="st3" cx="646" cy="125" r="109.3"/>
<path class="st1" d="M385.2,125.6l1.6-1.1C386.3,124.5,385.8,125,385.2,125.6z"/>
<path class="st2" d="M387.5,126.2l-3.1-2.5C385.2,124.8,386.4,125.8,387.5,126.2z"/>
<g>
	<g>
		<path class="st4" d="M615.1,96.2h-23.6l-0.1-6.2c-0.1-1.8-0.8-3.5-2.3-4.9c-1.5-1.4-3.1-2.1-5-2.1c-2.2,0-4.2,0.7-5.8,2.1
			c-1.6,1.4-2.5,3.3-2.5,5.6c0,4.1,2.8,8.4,8.5,13l17.1,13.8c2.7,2.2,5.1,4.4,7.1,6.7c0.2,0.3,0.5,0.6,0.7,0.8h5.9V96.2z
			 M610.7,122.2c-2.1-2.4-4.6-4.7-7.4-7l-17.1-13.8c-4.9-4-7.4-7.5-7.4-10.7c0-1.4,0.5-2.5,1.5-3.3c1-0.9,2.3-1.3,3.8-1.3
			c1,0,2,0.4,2.9,1.3c0.9,0.8,1.3,1.8,1.4,2.8l0.2,9.2h23.5v24.5C611.6,123.2,611.2,122.7,610.7,122.2z"/>
		<path class="st4" d="M681.7,115.6l-2-2.2l-0.6,2.9c-0.7,3.2-1.7,6.1-3.1,8.7h3.3c0.8-1.7,1.5-3.5,2-5.4c1,1,2.1,2.1,3.3,3l2.7,2.3
			h4.6l-5.3-4.6C684.8,118.8,683.2,117.2,681.7,115.6z"/>
		<path class="st4" d="M563.8,122.7l2.7,2.3h4.6l-5.3-4.6c-9.2-7.9-13.9-17-13.9-26.9c0-10.8,2.8-19,8.2-24.2
			c5.5-5.2,13.2-7.9,22.9-7.9h5c2.5,0,5.7,0.6,9.7,1.7c3.9,1.1,7.4,3.1,10.4,5.7c1.6,1.4,3.1,3.2,4.3,5.3l2.8,4.9V62.6h35.7
			c4.7,0,8.9,0.6,12.4,1.8c3.4,1.2,6.5,3.2,9.2,5.9c0.9,0.9,1.8,2,2.6,3.3l1.3,2l1.3-2c1-1.6,2.2-3,3.5-4.2
			c5.5-5.2,13.2-7.9,22.9-7.9h5c2.5,0,5.7,0.6,9.7,1.7c3.9,1.1,7.4,3.1,10.4,5.7c3,2.6,5.3,6.3,6.8,11c1.4,4.5,2.2,10,2.3,16.3
			h-25.6l-0.1-6.2c-0.1-1.8-0.8-3.5-2.3-4.9c-1.5-1.4-3.1-2.1-5-2.1c-2.2,0-4.2,0.7-5.8,2.1c-1.6,1.4-2.5,3.3-2.5,5.6
			c0,4.1,2.8,8.4,8.5,13l17.1,13.8c2.7,2.2,5.1,4.4,7.1,6.7c0.3,0.3,0.5,0.6,0.7,0.8h3.8c-0.7-0.9-1.5-1.9-2.3-2.8
			c-2.1-2.4-4.6-4.7-7.4-7l-17.1-13.8c-4.9-4-7.4-7.5-7.4-10.7c0-1.4,0.5-2.5,1.5-3.3c1-0.9,2.3-1.3,3.8-1.3c1,0,2,0.4,2.9,1.3
			c0.9,0.8,1.3,1.8,1.4,2.8l0.2,9.2H741v-1.5c0-7.3-0.8-13.6-2.5-18.8c-1.7-5.2-4.3-9.4-7.6-12.4c-3.4-2.9-7.2-5.1-11.5-6.3
			c-4.2-1.2-7.8-1.9-10.5-1.9h-5c-10.5,0-18.9,2.9-24.9,8.7c-1,0.9-1.8,1.9-2.7,3c-0.5-0.7-1.1-1.4-1.7-2c-3-3-6.5-5.3-10.3-6.6
			c-3.8-1.3-8.3-2-13.4-2h-38.7v9.2c-0.7-0.8-1.4-1.5-2.1-2.1c-3.4-2.9-7.2-5.1-11.5-6.3c-4.2-1.2-7.8-1.9-10.5-1.9h-5
			c-10.5,0-18.9,2.9-24.9,8.7c-6.1,5.8-9.2,14.7-9.2,26.3C548.8,104.3,553.9,114.1,563.8,122.7z"/>
		<path class="st4" d="M649.4,115.9c1.4-0.4,2.4-1,3.1-2c0.6-0.8,1.1-1.7,1.7-3c0.6-1.3,1-2.9,1.2-4.9v0c0.2-1.9,0.3-4.1,0.3-6.7
			c0-6-0.8-10.1-2.5-12.5c-1.8-2.6-4.7-3.9-8.9-3.9h-4.6v33.8h3.1c1.6,0,2.7,0,3.6-0.1C647.3,116.4,648.3,116.2,649.4,115.9z
			 M642.9,113.6h-0.1V85.8h1.6c3.1,0,5.2,0.9,6.4,2.6c1.3,1.9,1.9,5.6,1.9,10.9c0,2.5-0.1,4.7-0.3,6.4c-0.2,1.6-0.5,3-0.9,4
			c-0.5,1-1,1.9-1.4,2.4c-0.3,0.4-0.8,0.7-1.5,0.9c-1,0.3-1.8,0.4-2.5,0.5C645.4,113.6,644.3,113.6,642.9,113.6z"/>
	</g>
	<g>
		<polygon class="st4" points="689.6,125.9 690.4,125 688.6,125 		"/>
		<path class="st4" d="M553.1,153.4v-5.8h-3v5.8c0,0.7,0,1.5,0,2.2l3-0.1C553.1,154.8,553.1,154.1,553.1,153.4z"/>
		<path class="st4" d="M612.1,125h-1.7c0.2,0.3,0.5,0.5,0.7,0.8L612.1,125z"/>
		<polygon class="st4" points="553.1,143.6 553.1,142.4 556.9,142.4 556.9,139.4 550.1,139.4 550.1,143.6 		"/>
		<rect x="684.3" y="139.4" class="st4" width="8" height="3"/>
		<path class="st4" d="M553.3,159.4l-3,0.3c0.2,2.9,0.7,5.6,1.3,8.1l2.9-0.7C554,164.7,553.6,162.2,553.3,159.4z"/>
		<path class="st4" d="M552.8,171.8c1,2.8,2.2,5.3,3.8,7.5l2.5-1.7c-1.4-2-2.5-4.2-3.4-6.8L552.8,171.8z"/>
		<path class="st4" d="M591.3,157.8c-0.2,1.4-0.7,2.6-1.4,3.5c-0.6,0.7-1.2,1.2-2,1.5l1,2.8c1.3-0.5,2.5-1.3,3.4-2.5
			c1-1.3,1.7-3,1.9-4.9L591.3,157.8z"/>
		<path class="st4" d="M570,189c2.4,0.8,5.1,1.5,8,1.9l0.4-3c-2.7-0.4-5.3-1-7.5-1.7L570,189z"/>
		<path class="st4" d="M582.4,188.4l-0.2,3c1.8,0.1,3.8,0.2,5.8,0.2c0.8,0,1.6,0,2.4,0l-0.1-3C587.6,188.6,584.8,188.5,582.4,188.4z
			"/>
		<path class="st4" d="M584.9,163c-1.7-0.5-2.8-2.1-3.4-5l-2.9,0.6c0.9,4,2.7,6.4,5.5,7.2L584.9,163z"/>
		<rect x="560.9" y="139.4" class="st4" width="8" height="3"/>
		<path class="st4" d="M559.2,182.5c1.9,1.9,4.2,3.6,6.9,4.9l1.3-2.7c-2.4-1.2-4.4-2.6-6.1-4.3L559.2,182.5z"/>
		<polygon class="st4" points="570.7,127.6 572.6,125.3 572.3,125 567.7,125 		"/>
		<polygon class="st4" points="701.8,144.9 701.8,139.4 696.3,139.4 696.3,142.4 698.8,142.4 698.8,144.9 		"/>
		<polygon class="st4" points="680.3,142.4 680.3,139.4 671,139.4 671,141 672.5,141 672.5,142.4 		"/>
		<path class="st4" d="M707,141.6l0.2,0.3l2.3-2l-0.3-0.3c-1.3-1.4-3.2-3.3-5.6-5.5l-2,2.2C704,138.5,705.8,140.2,707,141.6z"/>
		<rect x="695.2" y="126" transform="matrix(0.6547 -0.7559 0.7559 0.6547 142.3097 571.5065)" class="st4" width="3" height="8"/>
		<path class="st4" d="M740.1,147.2l3-0.1c-0.1-1.1-0.2-2.8-0.5-5c-0.1-1.1-0.4-2.2-0.6-3.2l-2.9,0.7c0.2,0.9,0.4,1.9,0.6,2.9
			C739.9,144.5,740,146.1,740.1,147.2z"/>
		<path class="st4" d="M736.8,127.5l-2.5,1.6c0.3,0.6,0.7,1.1,1,1.7c1,1.9,1.9,3.7,2.5,5.3l2.8-1.2c-0.7-1.7-1.6-3.5-2.6-5.5
			C737.6,128.7,737.2,128.1,736.8,127.5z"/>
		<polygon class="st4" points="580.9,142.4 580.9,139.4 572.9,139.4 572.9,142.4 579.4,142.4 		"/>
		<path class="st4" d="M584.7,135.9l-2.1,2.2c1.4,1.4,2.6,2.6,3.5,3.5c0.6,0.7,1.2,1.4,1.7,2.1l2.4-1.7c-0.6-0.8-1.2-1.6-1.9-2.4
			C587.4,138.6,586.2,137.3,584.7,135.9z"/>
		<path class="st4" d="M581,154.3c0-0.6,0-1.3,0-1.9v-6h-3v6c0,0.7,0,1.4,0.1,2.1L581,154.3z"/>
		<path class="st4" d="M678.8,128.5l-2.6-1.6c-1.3,2.1-3,3.9-5,5.3l1.7,2.5C675.3,133,677.2,130.9,678.8,128.5z"/>
		<path class="st4" d="M578.9,130.7l-3.2-2.8l-2,2.3l3.2,2.8c1,0.9,1.9,1.7,2.8,2.4l2-2.2C580.8,132.4,579.9,131.6,578.9,130.7z"/>
		<path class="st4" d="M591.4,154.2l3-0.2c-0.2-2.8-0.6-5.2-1.5-7.2c-0.1-0.4-0.3-0.7-0.5-1.1l-2.7,1.3c0.1,0.3,0.3,0.6,0.4,0.9
			C590.8,149.6,591.2,151.7,591.4,154.2z"/>
		<polygon class="st4" points="616.3,133.8 616.3,125 613.3,125 613.3,128.5 614,128.5 613.3,128.9 		"/>
		<path class="st4" d="M733.3,125h-2c0.3,0.3,0.5,0.6,0.8,0.9L733.3,125z"/>
		<path class="st4" d="M707.1,166.2c0.3,0,0.7,0,1-0.1l-0.3-3c-0.2,0-0.4,0-0.6,0c-1.9,0-3.2-1-4.1-3l-2.8,1.2
			C701.9,165.3,704.9,166.2,707.1,166.2z"/>
		<path class="st4" d="M700.4,191.1c2.5,0.3,5.3,0.5,8.2,0.5l0-3c-2.8,0-5.4-0.2-7.8-0.4L700.4,191.1z"/>
		<path class="st4" d="M701.8,152.3v-3.4h-3v3.4c0,1.7,0.1,3.3,0.3,4.8l3-0.4C701.9,155.4,701.8,154,701.8,152.3z"/>
		<path class="st4" d="M712,151.8l3-0.4c-0.2-1.7-0.6-3.2-1.2-4.6c-0.5-1.2-1.1-2.3-1.7-3.4l-2.6,1.6c0.6,1,1.1,2,1.5,3
			C711.4,149,711.8,150.3,712,151.8z"/>
		<path class="st4" d="M680.7,178.6l-2.4,1.9c0.4,0.6,0.9,1.1,1.4,1.6c1.4,1.5,3.1,2.9,4.9,4l1.6-2.6c-1.6-1-3.1-2.2-4.3-3.5
			C681.5,179.6,681.1,179.1,680.7,178.6z"/>
		<path class="st4" d="M688.4,188.1c2.4,1,5,1.8,8,2.4l0.6-2.9c-2.7-0.5-5.2-1.3-7.3-2.2L688.4,188.1z"/>
		<path class="st4" d="M736.3,173.6c-1,2.2-2.2,4.2-3.6,5.9l2.3,1.9c1.6-1.9,2.9-4.1,4-6.6c0.1-0.2,0.2-0.4,0.3-0.7l-2.8-1.2
			C736.5,173.1,736.4,173.4,736.3,173.6z"/>
		<path class="st4" d="M739.3,163.4c-0.3,2-0.8,4-1.4,6l2.9,0.9c0.7-2.1,1.2-4.2,1.5-6.4c0.1-0.5,0.2-1.1,0.2-1.7l-3-0.4
			C739.5,162.3,739.4,162.8,739.3,163.4z"/>
		<path class="st4" d="M675.8,168.5l-2.9,0.8c0.8,2.8,1.8,5.4,3.1,7.7l2.6-1.5C677.5,173.4,676.5,171.1,675.8,168.5z"/>
		<path class="st4" d="M740.1,150c0,0.4,0,0.9,0,1.4c0,2.3-0.1,4.4-0.2,6.5l3,0.2c0.2-2.1,0.2-4.4,0.2-6.7c0-0.5,0-1,0-1.4
			L740.1,150z"/>
		<path class="st4" d="M715.3,155.9l0-0.4l-3,0l0,0.4c0,2.3-0.5,4.1-1.5,5.4c-0.1,0.2-0.3,0.4-0.5,0.5l2.1,2.1
			c0.2-0.3,0.5-0.5,0.7-0.8C714.6,161.3,715.3,158.9,715.3,155.9z"/>
		<path class="st4" d="M712.5,188.4l0.2,3c2.9-0.2,5.7-0.7,8.2-1.4l-0.8-2.9C717.8,187.8,715.2,188.2,712.5,188.4z"/>
		<path class="st4" d="M723.7,185.9l1.1,2.8c2.8-1.2,5.2-2.6,7.2-4.3l-1.9-2.3C728.4,183.6,726.2,184.9,723.7,185.9z"/>
		<path class="st4" d="M667.8,134.1c-2.1,0.9-4.5,1.6-7.1,2l0.5,3c2.9-0.4,5.6-1.2,7.9-2.2l0.2-0.1l-1.2-2.7L667.8,134.1z"/>
		<rect x="627.4" y="187.1" class="st4" width="8" height="3"/>
		<rect x="615.4" y="187.1" class="st4" width="8" height="3"/>
		<polygon class="st4" points="641,187.1 639.4,187.1 639.4,190.1 644,190.1 644,183.7 641,183.7 		"/>
		<path class="st4" d="M674,156.9l-3,0.1c0.1,2.9,0.4,5.6,0.9,8.1l3-0.5C674.5,162.3,674.2,159.7,674,156.9z"/>
		<path class="st4" d="M613.3,185.3h3v-12.6l-2.8,4.4c-0.1,0.2-0.2,0.3-0.3,0.5l0.5,0.3h-0.5V185.3z"/>
		<rect x="641" y="171.7" class="st4" width="3" height="8"/>
		<path class="st4" d="M609.9,181.6c-1.4,1.3-3,2.4-4.9,3.4l1.4,2.7c2.1-1.1,4-2.4,5.5-3.8c0.4-0.4,0.8-0.8,1.2-1.2l-2.2-2
			C610.6,180.9,610.2,181.2,609.9,181.6z"/>
		<rect x="641" y="159.7" class="st4" width="3" height="8"/>
		<path class="st4" d="M600.9,186.6c-2.1,0.7-4.4,1.2-6.9,1.6l0.4,3c2.7-0.3,5.2-0.9,7.5-1.7c0.2-0.1,0.4-0.1,0.6-0.2l-1-2.8
			C601.3,186.5,601.1,186.6,600.9,186.6z"/>
		<rect x="671" y="145" class="st4" width="3" height="8"/>
		<path class="st4" d="M653.9,136.6h-5v3h5c1,0,2.1,0,3-0.1l-0.2-3C655.9,136.6,654.9,136.6,653.9,136.6z"/>
		<rect x="641" y="147.7" class="st4" width="3" height="8"/>
		<polygon class="st4" points="641,143.7 644,143.7 644,139.6 644.9,139.6 644.9,136.6 641,136.6 		"/>
	</g>
</g>
<g>
	<path class="st3" d="M62.1,60.6L62,59c0-0.4,0-0.7-0.1-1.1s-0.2-0.8-0.3-1.2c-0.1-0.4-0.4-0.7-0.7-1c-0.3-0.2-0.6-0.4-1.1-0.4
		c-0.7,0-1.2,0.2-1.6,0.6c-0.4,0.4-0.5,0.9-0.5,1.6c0,1.5,0.6,2.7,1.8,3.5l6.2,4.5c1.2,0.9,2.3,1.9,3.2,2.9s1.6,1.9,2,2.7
		s0.8,1.7,1.1,2.7c0.3,0.9,0.4,1.7,0.5,2.3s0.1,1.3,0.1,2c0,4-1.1,7-3.4,9.1c-2.3,2-5.3,3.1-9.2,3.1c-8.2,0-12.4-4.2-12.4-12.6
		l0.1-3.3h10l0.1,4.9c0,0.7,0.1,1.2,0.2,1.7c0.2,0.4,0.4,0.7,0.7,0.9s0.5,0.3,0.8,0.4c0.2,0.1,0.5,0.1,0.8,0.1c1.3,0,2-1.1,2-3.3
		c0-0.6,0-1,0-1.2c0-0.3-0.1-0.6-0.2-1.1s-0.3-0.9-0.6-1.3c-0.3-0.4-0.7-0.8-1.2-1.4c-0.5-0.5-1.2-1.1-1.9-1.7L53,68.4
		c-1.2-0.9-2.1-1.8-2.8-2.6c-0.7-0.8-1.2-1.7-1.6-2.7c-0.3-0.9-0.5-1.8-0.6-2.5c-0.1-0.8-0.1-1.7-0.1-2.9c0-2.1,0.6-4,1.8-5.5
		s2.8-2.7,4.6-3.4c1.8-0.7,3.8-1.1,5.9-1.1c3.9,0,6.9,1,9,3c2.1,2,3.1,5,3.1,9.2v0.8H62.1z"/>
	<path class="st3" d="M98.7,48.1l2.3,25.5l2.6-25.5h9.9l-6,41.7H96.3l-2.6-25.6l-2.5,25.6H79.9l-6-41.7h9.9l2.5,25.5l2.4-25.5H98.7z
		"/>
	<path class="st3" d="M116.2,45.6v-4.9h10v4.9H116.2z M116.2,89.9V48.1h10v41.8H116.2z"/>
	<path class="st3" d="M131.3,40.9h9.7v8.9h1.8v7.6H141v23.5c0,0.4,0,0.6,0,0.8c0,0.2,0.1,0.4,0.1,0.7c0.1,0.2,0.2,0.4,0.3,0.5
		c0.2,0.1,0.4,0.2,0.6,0.2c0.2,0,0.5,0,0.7-0.1v6.8c-1.4,0.5-3.2,0.7-5.3,0.7c-1.1,0-2-0.1-2.8-0.4c-0.8-0.3-1.4-0.6-1.8-1.1
		c-0.4-0.4-0.8-1-1-1.6c-0.3-0.7-0.4-1.3-0.5-1.9s-0.1-1.2-0.1-2V57.4h-1.5v-7.6h1.5V40.9z"/>
	<path class="st3" d="M145.8,76.2V63.3c0-5.6,1-9.7,2.9-12.1s5.2-3.6,9.8-3.6c3.6,0,6.5,0.9,8.7,2.8c2.2,1.9,3.4,4.5,3.4,7.8v7.1
		h-10.2v-6.6c0-1-0.2-1.9-0.5-2.5c-0.3-0.6-0.9-0.9-1.8-0.9c-1.6,0-2.4,1.2-2.4,3.5v20.2c0,0.9,0.2,1.6,0.6,2.4
		c0.4,0.7,1,1.1,1.8,1.1c0.2,0,0.5,0,0.7-0.1s0.5-0.3,0.8-0.5c0.3-0.2,0.5-0.6,0.6-1.1s0.2-1.1,0.2-1.8l-0.1-6.3h10.2v6.5
		c0,3.4-1.1,6.1-3.3,8.1s-5.1,3-8.6,3c-1.6,0-3.1-0.2-4.4-0.5c-1.3-0.3-2.4-0.7-3.3-1.2c-0.9-0.5-1.6-1.2-2.3-1.9
		c-0.6-0.8-1.2-1.6-1.5-2.3c-0.4-0.8-0.6-1.7-0.9-2.7c-0.2-1-0.3-1.9-0.4-2.8S145.8,77.2,145.8,76.2z"/>
	<path class="st3" d="M174.4,89.9V40.7h10.2v11.6c1.1-3.1,3.1-4.7,6.1-4.7c2.6,0,4.7,0.8,6.3,2.5c1.5,1.7,2.3,4.2,2.3,7.6v32.1h-10
		V61.1c0-0.1,0-0.3,0-0.7c0-0.3,0-0.6,0-0.8c0-2.9-0.8-4.4-2.5-4.4c-0.5,0-1,0.2-1.5,0.7c-0.5,0.5-0.8,1.2-0.8,2.3v31.6H174.4z"/>
	<path class="st4" d="M227.3,95.1h-10.1V48.1h10.1v2.3c1.5-1.8,3.5-2.8,6-2.8c1.3,0,2.5,0.2,3.5,0.6c1,0.4,1.9,1,2.5,1.7
		c0.6,0.7,1.2,1.6,1.6,2.7s0.7,2.2,0.8,3.4c0.2,1.2,0.2,2.5,0.2,3.9v15.3c0,0,0,0.1,0,0.1c0,1.3,0,2.4,0,3c0,0.7-0.1,1.7-0.2,2.9
		c-0.1,1.2-0.3,2.2-0.5,2.9c-0.2,0.7-0.5,1.5-1,2.4c-0.4,0.9-1,1.6-1.6,2c-0.6,0.5-1.4,0.9-2.4,1.2c-1,0.3-2.1,0.5-3.3,0.5
		c-2.5,0-4.4-0.7-5.7-2.1V95.1z M227.3,59.9v18.3c0,1.5,0.2,2.6,0.5,3.4c0.4,0.7,1,1.1,1.9,1.1c0.8,0,1.3-0.4,1.7-1.1
		c0.3-0.8,0.5-2,0.5-3.8V60c0-0.4,0-0.7,0-0.9c0-0.2,0-0.5-0.1-0.9c0-0.4-0.1-0.8-0.2-1c-0.1-0.2-0.2-0.5-0.4-0.8
		c-0.2-0.3-0.4-0.5-0.6-0.6s-0.6-0.2-1-0.2C228.1,55.5,227.3,57,227.3,59.9z"/>
	<path class="st4" d="M257.9,90.4c-8.3,0-12.5-4.3-12.5-13V60.6c0-4,1.1-7.2,3.3-9.5s5.3-3.5,9.1-3.5c3.9,0,6.9,1.2,9.2,3.5
		s3.3,5.5,3.3,9.5v16.8c0,4.4-1.1,7.6-3.2,9.8C265.1,89.3,262,90.4,257.9,90.4z M255.6,59.1v20.4c0,1.1,0.2,1.9,0.7,2.4
		c0.4,0.5,1,0.8,1.7,0.8c0.7,0,1.2-0.3,1.7-0.8c0.4-0.5,0.7-1.3,0.7-2.4V59.1c0-2.4-0.8-3.6-2.3-3.6S255.6,56.6,255.6,59.1z"/>
	<path class="st4" d="M287.6,60.6l-0.1-1.6c0-0.4,0-0.7-0.1-1.1s-0.2-0.8-0.3-1.2c-0.1-0.4-0.4-0.7-0.7-1c-0.3-0.2-0.6-0.4-1.1-0.4
		c-0.7,0-1.2,0.2-1.6,0.6c-0.4,0.4-0.5,0.9-0.5,1.6c0,1.5,0.6,2.7,1.8,3.5l6.2,4.5c1.2,0.9,2.3,1.9,3.2,2.9s1.6,1.9,2,2.7
		s0.8,1.7,1.1,2.7c0.3,0.9,0.4,1.7,0.5,2.3s0.1,1.3,0.1,2c0,4-1.1,7-3.4,9.1c-2.3,2-5.3,3.1-9.2,3.1c-8.2,0-12.4-4.2-12.4-12.6
		l0.1-3.3h10l0.1,4.9c0,0.7,0.1,1.2,0.2,1.7c0.2,0.4,0.4,0.7,0.7,0.9s0.5,0.3,0.8,0.4c0.2,0.1,0.5,0.1,0.8,0.1c1.3,0,2-1.1,2-3.3
		c0-0.6,0-1,0-1.2c0-0.3-0.1-0.6-0.2-1.1s-0.3-0.9-0.6-1.3c-0.3-0.4-0.7-0.8-1.2-1.4c-0.5-0.5-1.2-1.1-1.9-1.7l-5.3-4.1
		c-1.2-0.9-2.1-1.8-2.8-2.6c-0.7-0.8-1.2-1.7-1.6-2.7c-0.3-0.9-0.5-1.8-0.6-2.5c-0.1-0.8-0.1-1.7-0.1-2.9c0-2.1,0.6-4,1.8-5.5
		s2.8-2.7,4.6-3.4c1.8-0.7,3.8-1.1,5.9-1.1c3.9,0,6.9,1,9,3c2.1,2,3.1,5,3.1,9.2v0.8H287.6z"/>
	<path class="st4" d="M302,40.9h9.7v8.9h1.8v7.6h-1.8v23.5c0,0.4,0,0.6,0,0.8c0,0.2,0.1,0.4,0.1,0.7c0.1,0.2,0.2,0.4,0.3,0.5
		c0.2,0.1,0.4,0.2,0.6,0.2c0.2,0,0.5,0,0.7-0.1v6.8c-1.4,0.5-3.2,0.7-5.3,0.7c-1.1,0-2-0.1-2.8-0.4c-0.8-0.3-1.4-0.6-1.8-1.1
		c-0.4-0.4-0.8-1-1-1.6c-0.3-0.7-0.4-1.3-0.5-1.9s-0.1-1.2-0.1-2V57.4h-1.5v-7.6h1.5V40.9z"/>
	<path class="st4" d="M343.9,60.6l-0.1-1.6c0-0.4,0-0.7-0.1-1.1s-0.2-0.8-0.3-1.2c-0.1-0.4-0.4-0.7-0.7-1c-0.3-0.2-0.6-0.4-1.1-0.4
		c-0.7,0-1.2,0.2-1.6,0.6c-0.4,0.4-0.5,0.9-0.5,1.6c0,1.5,0.6,2.7,1.8,3.5l6.2,4.5c1.2,0.9,2.3,1.9,3.2,2.9s1.6,1.9,2,2.7
		s0.8,1.7,1.1,2.7c0.3,0.9,0.4,1.7,0.5,2.3s0.1,1.3,0.1,2c0,4-1.1,7-3.4,9.1c-2.3,2-5.3,3.1-9.2,3.1c-8.2,0-12.4-4.2-12.4-12.6
		l0.1-3.3h10l0.1,4.9c0,0.7,0.1,1.2,0.2,1.7c0.2,0.4,0.4,0.7,0.7,0.9s0.5,0.3,0.8,0.4c0.2,0.1,0.5,0.1,0.8,0.1c1.3,0,2-1.1,2-3.3
		c0-0.6,0-1,0-1.2c0-0.3-0.1-0.6-0.2-1.1s-0.3-0.9-0.6-1.3c-0.3-0.4-0.7-0.8-1.2-1.4c-0.5-0.5-1.2-1.1-1.9-1.7l-5.3-4.1
		c-1.2-0.9-2.1-1.8-2.8-2.6c-0.7-0.8-1.2-1.7-1.6-2.7c-0.3-0.9-0.5-1.8-0.6-2.5c-0.1-0.8-0.1-1.7-0.1-2.9c0-2.1,0.6-4,1.8-5.5
		s2.8-2.7,4.6-3.4c1.8-0.7,3.8-1.1,5.9-1.1c3.9,0,6.9,1,9,3c2.1,2,3.1,5,3.1,9.2v0.8H343.9z"/>
	<path class="st4" d="M358.3,40.9h9.7v8.9h1.8v7.6H368v23.5c0,0.4,0,0.6,0,0.8c0,0.2,0.1,0.4,0.1,0.7c0.1,0.2,0.2,0.4,0.3,0.5
		c0.2,0.1,0.4,0.2,0.6,0.2c0.2,0,0.5,0,0.7-0.1v6.8c-1.4,0.5-3.2,0.7-5.3,0.7c-1.1,0-2-0.1-2.8-0.4c-0.8-0.3-1.4-0.6-1.8-1.1
		c-0.4-0.4-0.8-1-1-1.6c-0.3-0.7-0.4-1.3-0.5-1.9s-0.1-1.2-0.1-2V57.4h-1.5v-7.6h1.5V40.9z"/>
	<path class="st4" d="M372.5,77.9c0-3.7,0.5-6.5,1.6-8.3c0.9-1.6,2.6-2.9,4.9-4c1.2-0.6,3.8-1.5,8-3c0,0,0,0,0-0.1
		c0-0.6,0-1.1,0-1.4c0-0.4,0-0.8,0-1.3c0-0.5,0-0.8,0-1.1c0-0.3,0-0.6-0.1-0.9c0-0.3-0.1-0.6-0.1-0.8s-0.1-0.4-0.2-0.6
		c-0.1-0.2-0.2-0.4-0.3-0.5c-0.1-0.1-0.2-0.2-0.3-0.3c-0.1-0.1-0.3-0.2-0.5-0.2s-0.4-0.1-0.6-0.1c-1.4,0-2.1,0.8-2.1,2.3v2.8h-9.7
		c0-0.3,0-0.8,0-1.4c0-4,0.9-6.9,2.8-8.7s5-2.8,9.4-2.8c1.4,0,2.8,0.2,4.1,0.6s2.6,1,3.7,1.8c1.2,0.8,2.1,1.9,2.8,3.3
		c0.7,1.4,1,3,1,4.8v31.8h-9.9v-4.3c-0.3,1.2-1.1,2.3-2.3,3.3c-1.2,1-2.5,1.5-3.9,1.5c-1,0-1.9-0.1-2.6-0.3
		c-0.8-0.2-1.5-0.5-2.3-1.1c-0.8-0.5-1.4-1.3-1.9-2.2c-0.5-0.9-0.9-2.1-1.2-3.6C372.6,81.8,372.5,80,372.5,77.9z M382.6,74v4.9
		c0,2.5,0.7,3.7,2.2,3.7c0.4,0,0.8-0.1,1.1-0.3c0.3-0.2,0.5-0.5,0.7-0.9c0.1-0.4,0.3-0.7,0.3-1s0.1-0.7,0.1-1v-11
		c-1.7,0.7-2.9,1.5-3.5,2.4C382.9,71.7,382.6,72.8,382.6,74z"/>
	<path class="st4" d="M402.1,40.9h9.7v8.9h1.8v7.6h-1.8v23.5c0,0.4,0,0.6,0,0.8c0,0.2,0.1,0.4,0.1,0.7c0.1,0.2,0.2,0.4,0.3,0.5
		c0.2,0.1,0.4,0.2,0.6,0.2c0.2,0,0.5,0,0.7-0.1v6.8c-1.4,0.5-3.2,0.7-5.3,0.7c-1.1,0-2-0.1-2.8-0.4c-0.8-0.3-1.4-0.6-1.8-1.1
		c-0.4-0.4-0.8-1-1-1.6c-0.3-0.7-0.4-1.3-0.5-1.9s-0.1-1.2-0.1-2V57.4h-1.5v-7.6h1.5V40.9z"/>
	<path class="st4" d="M432,48.1h9.9v41.7h-10v-4.5c-0.8,2-1.7,3.3-2.7,4c-1,0.7-2.3,1-3.7,1c-1.4,0-2.6-0.2-3.6-0.6
		c-1-0.4-1.8-0.9-2.4-1.6c-0.6-0.6-1-1.5-1.3-2.5c-0.3-1-0.5-2-0.6-3c-0.1-1-0.1-2.1-0.1-3.5V48.1h10v29.1c0,2.1,0.1,3.5,0.4,4.2
		s0.9,1.1,1.9,1.1c0.4,0,0.7-0.1,1-0.2c0.3-0.1,0.5-0.4,0.7-0.7c0.2-0.3,0.3-0.6,0.4-0.9s0.2-0.6,0.2-1.1c0-0.5,0.1-0.8,0.1-1.1
		c0-0.3,0-0.6,0-1.1c0-0.1,0-0.3,0-0.3L432,48.1z"/>
	<path class="st4" d="M459.8,60.6l-0.1-1.6c0-0.4,0-0.7-0.1-1.1c-0.1-0.4-0.2-0.8-0.3-1.2c-0.1-0.4-0.4-0.7-0.7-1s-0.7-0.4-1.1-0.4
		c-0.7,0-1.2,0.2-1.6,0.6c-0.4,0.4-0.5,0.9-0.5,1.6c0,1.5,0.6,2.7,1.8,3.5l6.2,4.5c1.2,0.9,2.3,1.9,3.2,2.9s1.6,1.9,2,2.7
		c0.5,0.8,0.8,1.7,1.1,2.7c0.3,0.9,0.4,1.7,0.5,2.3s0.1,1.3,0.1,2c0,4-1.1,7-3.4,9.1s-5.3,3.1-9.2,3.1c-8.2,0-12.4-4.2-12.4-12.6
		l0.1-3.3h10l0.1,4.9c0,0.7,0.1,1.2,0.2,1.7c0.2,0.4,0.4,0.7,0.7,0.9s0.5,0.3,0.8,0.4c0.2,0.1,0.5,0.1,0.8,0.1c1.3,0,2-1.1,2-3.3
		c0-0.6,0-1,0-1.2c0-0.3-0.1-0.6-0.2-1.1c-0.1-0.5-0.3-0.9-0.6-1.3c-0.3-0.4-0.7-0.8-1.2-1.4s-1.2-1.1-1.9-1.7l-5.3-4.1
		c-1.2-0.9-2.1-1.8-2.8-2.6c-0.7-0.8-1.2-1.7-1.6-2.7c-0.3-0.9-0.5-1.8-0.6-2.5c-0.1-0.8-0.1-1.7-0.1-2.9c0-2.1,0.6-4,1.8-5.5
		s2.8-2.7,4.6-3.4c1.8-0.7,3.8-1.1,5.9-1.1c3.9,0,6.9,1,9,3c2.1,2,3.1,5,3.1,9.2v0.8H459.8z"/>
</g>
</svg>
