<?xml version="1.0" encoding="utf-8"?>
<!-- Generator: Adobe Illustrator 21.0.0, SVG Export Plug-In . SVG Version: 6.00 Build 0)  -->
<svg version="1.1" id="Livello_1" xmlns="http://www.w3.org/2000/svg" xmlns:xlink="http://www.w3.org/1999/xlink" x="0px" y="0px"
	 viewBox="0 0 256 256" style="enable-background:new 0 0 256 256;" xml:space="preserve">
<style type="text/css">
	.st0{fill:#A590C3;}
	.st1{fill:#F5B9D5;}
</style>
<circle class="st0" cx="128.5" cy="128.5" r="117.9"/>
<g>
	<g>
		<path class="st1" d="M97.1,98.2H73.5L73.3,92c-0.1-1.8-0.8-3.5-2.3-4.9c-1.5-1.4-3.1-2.1-5-2.1c-2.2,0-4.2,0.7-5.8,2.1
			c-1.6,1.4-2.5,3.3-2.5,5.6c0,4.1,2.8,8.4,8.5,13l17.1,13.8c2.7,2.2,5.1,4.4,7.1,6.7c0.2,0.3,0.5,0.6,0.7,0.8h5.9V98.2z
			 M92.7,124.2c-2.1-2.4-4.6-4.7-7.4-7l-17.1-13.8c-4.9-4-7.4-7.5-7.4-10.7c0-1.4,0.5-2.5,1.5-3.3c1-0.9,2.3-1.3,3.8-1.3
			c1,0,2,0.4,2.9,1.3c0.9,0.8,1.3,1.8,1.4,2.8l0.2,9.2h23.5v24.5C93.6,125.2,93.2,124.7,92.7,124.2z"/>
		<path class="st1" d="M163.7,117.6l-2-2.2l-0.6,2.9c-0.7,3.2-1.7,6.1-3.1,8.7h3.3c0.8-1.7,1.5-3.5,2-5.4c1,1,2.1,2.1,3.3,3l2.7,2.3
			h4.6l-5.3-4.6C166.8,120.8,165.2,119.2,163.7,117.6z"/>
		<path class="st1" d="M45.8,124.7l2.7,2.3h4.6l-5.3-4.6c-9.2-7.9-13.9-17-13.9-26.9c0-10.8,2.8-19,8.2-24.2
			c5.5-5.2,13.2-7.9,22.9-7.9h5c2.5,0,5.7,0.6,9.7,1.7c3.9,1.1,7.4,3.1,10.4,5.7c1.6,1.4,3.1,3.2,4.3,5.3l2.8,4.9V64.6h35.7
			c4.7,0,8.9,0.6,12.4,1.8c3.4,1.2,6.5,3.2,9.2,5.9c0.9,0.9,1.8,2,2.6,3.3l1.3,2l1.3-2c1-1.6,2.2-3,3.5-4.2
			c5.5-5.2,13.2-7.9,22.9-7.9h5c2.5,0,5.7,0.6,9.7,1.7c3.9,1.1,7.4,3.1,10.4,5.7c3,2.6,5.3,6.3,6.8,11c1.4,4.5,2.2,10,2.3,16.3
			h-25.6l-0.1-6.2c-0.1-1.8-0.8-3.5-2.3-4.9c-1.5-1.4-3.1-2.1-5-2.1c-2.2,0-4.2,0.7-5.8,2.1c-1.6,1.4-2.5,3.3-2.5,5.6
			c0,4.1,2.8,8.4,8.5,13l17.1,13.8c2.7,2.2,5.1,4.4,7.1,6.7c0.3,0.3,0.5,0.6,0.7,0.8h3.8c-0.7-0.9-1.5-1.9-2.3-2.8
			c-2.1-2.4-4.6-4.7-7.4-7l-17.1-13.8c-4.9-4-7.4-7.5-7.4-10.7c0-1.4,0.5-2.5,1.5-3.3c1-0.9,2.3-1.3,3.8-1.3c1,0,2,0.4,2.9,1.3
			c0.9,0.8,1.3,1.8,1.4,2.8l0.2,9.2H223v-1.5c0-7.3-0.8-13.6-2.5-18.8c-1.7-5.2-4.3-9.4-7.6-12.4c-3.4-2.9-7.2-5.1-11.5-6.3
			c-4.2-1.2-7.8-1.9-10.5-1.9h-5c-10.5,0-18.9,2.9-24.9,8.7c-1,0.9-1.8,1.9-2.7,3c-0.5-0.7-1.1-1.4-1.7-2c-3-3-6.5-5.3-10.3-6.6
			c-3.8-1.3-8.3-2-13.4-2H94.1v9.2c-0.7-0.8-1.4-1.5-2.1-2.1c-3.4-2.9-7.2-5.1-11.5-6.3c-4.2-1.2-7.8-1.9-10.5-1.9h-5
			c-10.5,0-18.9,2.9-24.9,8.7c-6.1,5.8-9.2,14.7-9.2,26.3C30.8,106.3,35.9,116.1,45.8,124.7z"/>
		<path class="st1" d="M131.4,117.9c1.4-0.4,2.4-1,3.1-2c0.6-0.8,1.1-1.7,1.7-3c0.6-1.3,1-2.9,1.2-4.9v0c0.2-1.9,0.3-4.1,0.3-6.7
			c0-6-0.8-10.1-2.5-12.5c-1.8-2.6-4.7-3.9-8.9-3.9h-4.6v33.8h3.1c1.6,0,2.7,0,3.6-0.1C129.3,118.4,130.3,118.2,131.4,117.9z
			 M124.9,115.6h-0.1V87.8h1.6c3.1,0,5.2,0.9,6.4,2.6c1.3,1.9,1.9,5.6,1.9,10.9c0,2.5-0.1,4.7-0.3,6.4c-0.2,1.6-0.5,3-0.9,4
			c-0.5,1-1,1.9-1.4,2.4c-0.3,0.4-0.8,0.7-1.5,0.9c-1,0.3-1.8,0.4-2.5,0.5C127.4,115.6,126.3,115.6,124.9,115.6z"/>
	</g>
	<g>
		<polygon class="st1" points="171.6,127.9 172.4,127 170.6,127 		"/>
		<path class="st1" d="M35.1,155.4v-5.8h-3v5.8c0,0.7,0,1.5,0,2.2l3-0.1C35.1,156.8,35.1,156.1,35.1,155.4z"/>
		<path class="st1" d="M94.1,127h-1.7c0.2,0.3,0.5,0.5,0.7,0.8L94.1,127z"/>
		<polygon class="st1" points="35.1,145.6 35.1,144.4 38.9,144.4 38.9,141.4 32.1,141.4 32.1,145.6 		"/>
		<rect x="166.3" y="141.4" class="st1" width="8" height="3"/>
		<path class="st1" d="M35.3,161.4l-3,0.3c0.2,2.9,0.7,5.6,1.3,8.1l2.9-0.7C36,166.7,35.6,164.2,35.3,161.4z"/>
		<path class="st1" d="M34.8,173.8c1,2.8,2.2,5.3,3.8,7.5l2.5-1.7c-1.4-2-2.5-4.2-3.4-6.8L34.8,173.8z"/>
		<path class="st1" d="M73.3,159.8c-0.2,1.4-0.7,2.6-1.4,3.5c-0.6,0.7-1.2,1.2-2,1.5l1,2.8c1.3-0.5,2.5-1.3,3.4-2.5
			c1-1.3,1.7-3,1.9-4.9L73.3,159.8z"/>
		<path class="st1" d="M52,191c2.4,0.8,5.1,1.5,8,1.9l0.4-3c-2.7-0.4-5.3-1-7.5-1.7L52,191z"/>
		<path class="st1" d="M64.4,190.4l-0.2,3c1.8,0.1,3.8,0.2,5.8,0.2c0.8,0,1.6,0,2.4,0l-0.1-3C69.6,190.6,66.8,190.5,64.4,190.4z"/>
		<path class="st1" d="M66.9,165c-1.7-0.5-2.8-2.1-3.4-5l-2.9,0.6c0.9,4,2.7,6.4,5.5,7.2L66.9,165z"/>
		<rect x="42.9" y="141.4" class="st1" width="8" height="3"/>
		<path class="st1" d="M41.2,184.5c1.9,1.9,4.2,3.6,6.9,4.9l1.3-2.7c-2.4-1.2-4.4-2.6-6.1-4.3L41.2,184.5z"/>
		<polygon class="st1" points="52.7,129.6 54.6,127.3 54.3,127 49.7,127 		"/>
		<polygon class="st1" points="183.8,146.9 183.8,141.4 178.3,141.4 178.3,144.4 180.8,144.4 180.8,146.9 		"/>
		<polygon class="st1" points="162.3,144.4 162.3,141.4 153,141.4 153,143 154.5,143 154.5,144.4 		"/>
		<path class="st1" d="M189,143.6l0.2,0.3l2.3-2l-0.3-0.3c-1.3-1.4-3.2-3.3-5.6-5.5l-2,2.2C186,140.5,187.8,142.2,189,143.6z"/>
		<rect x="177.2" y="128" transform="matrix(0.6547 -0.7559 0.7559 0.6547 -38.0769 180.6386)" class="st1" width="3" height="8"/>
		<path class="st1" d="M222.1,149.2l3-0.1c-0.1-1.1-0.2-2.8-0.5-5c-0.1-1.1-0.4-2.2-0.6-3.2l-2.9,0.7c0.2,0.9,0.4,1.9,0.6,2.9
			C221.9,146.5,222,148.1,222.1,149.2z"/>
		<path class="st1" d="M218.8,129.5l-2.5,1.6c0.3,0.6,0.7,1.1,1,1.7c1,1.9,1.9,3.7,2.5,5.3l2.8-1.2c-0.7-1.7-1.6-3.5-2.6-5.5
			C219.6,130.7,219.2,130.1,218.8,129.5z"/>
		<polygon class="st1" points="62.9,144.4 62.9,141.4 54.9,141.4 54.9,144.4 61.4,144.4 		"/>
		<path class="st1" d="M66.7,137.9l-2.1,2.2c1.4,1.4,2.6,2.6,3.5,3.5c0.6,0.7,1.2,1.4,1.7,2.1l2.4-1.7c-0.6-0.8-1.2-1.6-1.9-2.4
			C69.4,140.6,68.2,139.3,66.7,137.9z"/>
		<path class="st1" d="M63,156.3c0-0.6,0-1.3,0-1.9v-6h-3v6c0,0.7,0,1.4,0.1,2.1L63,156.3z"/>
		<path class="st1" d="M160.8,130.5l-2.6-1.6c-1.3,2.1-3,3.9-5,5.3l1.7,2.5C157.3,135,159.2,132.9,160.8,130.5z"/>
		<path class="st1" d="M60.9,132.7l-3.2-2.8l-2,2.3l3.2,2.8c1,0.9,1.9,1.7,2.8,2.4l2-2.2C62.8,134.4,61.9,133.6,60.9,132.7z"/>
		<path class="st1" d="M73.4,156.2l3-0.2c-0.2-2.8-0.6-5.2-1.5-7.2c-0.1-0.4-0.3-0.7-0.5-1.1l-2.7,1.3c0.1,0.3,0.3,0.6,0.4,0.9
			C72.8,151.6,73.2,153.7,73.4,156.2z"/>
		<polygon class="st1" points="98.3,135.8 98.3,127 95.3,127 95.3,130.5 96,130.5 95.3,130.9 		"/>
		<path class="st1" d="M215.3,127h-2c0.3,0.3,0.5,0.6,0.8,0.9L215.3,127z"/>
		<path class="st1" d="M189.1,168.2c0.3,0,0.7,0,1-0.1l-0.3-3c-0.2,0-0.4,0-0.6,0c-1.9,0-3.2-1-4.1-3l-2.8,1.2
			C183.9,167.3,186.9,168.2,189.1,168.2z"/>
		<path class="st1" d="M182.4,193.1c2.5,0.3,5.3,0.5,8.2,0.5l0-3c-2.8,0-5.4-0.2-7.8-0.4L182.4,193.1z"/>
		<path class="st1" d="M183.8,154.3v-3.4h-3v3.4c0,1.7,0.1,3.3,0.3,4.8l3-0.4C183.9,157.4,183.8,156,183.8,154.3z"/>
		<path class="st1" d="M194,153.8l3-0.4c-0.2-1.7-0.6-3.2-1.2-4.6c-0.5-1.2-1.1-2.3-1.7-3.4l-2.6,1.6c0.6,1,1.1,2,1.5,3
			C193.4,151,193.8,152.3,194,153.8z"/>
		<path class="st1" d="M162.7,180.6l-2.4,1.9c0.4,0.6,0.9,1.1,1.4,1.6c1.4,1.5,3.1,2.9,4.9,4l1.6-2.6c-1.6-1-3.1-2.2-4.3-3.5
			C163.5,181.6,163.1,181.1,162.7,180.6z"/>
		<path class="st1" d="M170.4,190.1c2.4,1,5,1.8,8,2.4l0.6-2.9c-2.7-0.5-5.2-1.3-7.3-2.2L170.4,190.1z"/>
		<path class="st1" d="M218.3,175.6c-1,2.2-2.2,4.2-3.6,5.9l2.3,1.9c1.6-1.9,2.9-4.1,4-6.6c0.1-0.2,0.2-0.4,0.3-0.7l-2.8-1.2
			C218.5,175.1,218.4,175.4,218.3,175.6z"/>
		<path class="st1" d="M221.3,165.4c-0.3,2-0.8,4-1.4,6l2.9,0.9c0.7-2.1,1.2-4.2,1.5-6.4c0.1-0.5,0.2-1.1,0.2-1.7l-3-0.4
			C221.5,164.3,221.4,164.8,221.3,165.4z"/>
		<path class="st1" d="M157.8,170.5l-2.9,0.8c0.8,2.8,1.8,5.4,3.1,7.7l2.6-1.5C159.5,175.4,158.5,173.1,157.8,170.5z"/>
		<path class="st1" d="M222.1,152c0,0.4,0,0.9,0,1.4c0,2.3-0.1,4.4-0.2,6.5l3,0.2c0.2-2.1,0.2-4.4,0.2-6.7c0-0.5,0-1,0-1.4
			L222.1,152z"/>
		<path class="st1" d="M197.3,157.9l0-0.4l-3,0l0,0.4c0,2.3-0.5,4.1-1.5,5.4c-0.1,0.2-0.3,0.4-0.5,0.5l2.1,2.1
			c0.2-0.3,0.5-0.5,0.7-0.8C196.6,163.3,197.3,160.9,197.3,157.9z"/>
		<path class="st1" d="M194.5,190.4l0.2,3c2.9-0.2,5.7-0.7,8.2-1.4l-0.8-2.9C199.8,189.8,197.2,190.2,194.5,190.4z"/>
		<path class="st1" d="M205.7,187.9l1.1,2.8c2.8-1.2,5.2-2.6,7.2-4.3l-1.9-2.3C210.4,185.6,208.2,186.9,205.7,187.9z"/>
		<path class="st1" d="M149.8,136.1c-2.1,0.9-4.5,1.6-7.1,2l0.5,3c2.9-0.4,5.6-1.2,7.9-2.2l0.2-0.1l-1.2-2.7L149.8,136.1z"/>
		<rect x="109.4" y="189.1" class="st1" width="8" height="3"/>
		<rect x="97.4" y="189.1" class="st1" width="8" height="3"/>
		<polygon class="st1" points="123,189.1 121.4,189.1 121.4,192.1 126,192.1 126,185.7 123,185.7 		"/>
		<path class="st1" d="M156,158.9l-3,0.1c0.1,2.9,0.4,5.6,0.9,8.1l3-0.5C156.5,164.3,156.2,161.7,156,158.9z"/>
		<path class="st1" d="M95.3,187.3h3v-12.6l-2.8,4.4c-0.1,0.2-0.2,0.3-0.3,0.5l0.5,0.3h-0.5V187.3z"/>
		<rect x="123" y="173.7" class="st1" width="3" height="8"/>
		<path class="st1" d="M91.9,183.6c-1.4,1.3-3,2.4-4.9,3.4l1.4,2.7c2.1-1.1,4-2.4,5.5-3.8c0.4-0.4,0.8-0.8,1.2-1.2l-2.2-2
			C92.6,182.9,92.2,183.2,91.9,183.6z"/>
		<rect x="123" y="161.7" class="st1" width="3" height="8"/>
		<path class="st1" d="M82.9,188.6c-2.1,0.7-4.4,1.2-6.9,1.6l0.4,3c2.7-0.3,5.2-0.9,7.5-1.7c0.2-0.1,0.4-0.1,0.6-0.2l-1-2.8
			C83.3,188.5,83.1,188.6,82.9,188.6z"/>
		<rect x="153" y="147" class="st1" width="3" height="8"/>
		<path class="st1" d="M135.9,138.6h-5v3h5c1,0,2.1,0,3-0.1l-0.2-3C137.9,138.6,136.9,138.6,135.9,138.6z"/>
		<rect x="123" y="149.7" class="st1" width="3" height="8"/>
		<polygon class="st1" points="123,145.7 126,145.7 126,141.6 126.9,141.6 126.9,138.6 123,138.6 		"/>
	</g>
</g>
</svg>
